<svg xmlns="http://www.w3.org/2000/svg" viewBox="0 0 32 32">
  <defs>
    <linearGradient id="grad" x1="0%" y1="0%" x2="100%" y2="100%">
      <stop offset="0%" style="stop-color:#2563eb;stop-opacity:1" />
      <stop offset="100%" style="stop-color:#9333ea;stop-opacity:1" />
    </linearGradient>
  </defs>
  
  <!-- Background circle -->
  <circle cx="16" cy="16" r="15" fill="url(#grad)" stroke="#1e40af" stroke-width="1"/>
  
  <!-- Main sparkle/star -->
  <path
    fill="white"
    d="M16 6l2.5 5L24 12.5l-4 3.9 0.9 5.6L16 19l-4.9 3L12 16.4 8 12.5l5.5-1.5L16 6z"
    opacity="0.95"
  />
  
  <!-- Small accent sparkles -->
  <g fill="white" opacity="1">
    <path d="M8 8l-1 2-2-1 2-1 1 2z"/>
    <path d="M26 10l-0.5 1-1-0.5 1-0.5 0.5 1z"/>
    <path d="M6 24l-0.5 1-1-0.5 1-0.5 0.5 1z"/>
    <path d="M24 26l-0.5 1-1-0.5 1-0.5 0.5 1z"/>
  </g>
</svg>
